HIERARCHY
ROOT root
{
	OFFSET 0.000000 0.000000 0.000000
	CHANNELS 6 Xposition Yposition Zposition Zrotation Yrotation Xrotation
	JOINT lhip
	{
		OFFSET 0.058581 -0.082280 -0.017664
		CHANNELS 3 Zrotation Yrotation Xrotation
		JOINT lknee
		{
			OFFSET 0.043451 -0.386469 0.008037
			CHANNELS 3 Zrotation Yrotation Xrotation
			JOINT lankle
			{
				OFFSET -0.014790 -0.426874 -0.037428
				CHANNELS 3 Zrotation Yrotation Xrotation
				JOINT ltoe
				{
					OFFSET 0.041054 -0.060286 0.122042
					CHANNELS 3 Zrotation Yrotation Xrotation
					End Site
					{
						OFFSET 0.000000 0.000000 0.000000
					}
				}
			}
		}
	}
	JOINT rhip
	{
		OFFSET -0.060310 -0.090513 -0.013543
		CHANNELS 3 Zrotation Yrotation Xrotation
		JOINT rknee
		{
			OFFSET -0.043257 -0.383688 -0.004843
			CHANNELS 3 Zrotation Yrotation Xrotation
			JOINT rankle
			{
				OFFSET 0.019056 -0.420046 -0.034562
				CHANNELS 3 Zrotation Yrotation Xrotation
				JOINT rtoe
				{
					OFFSET -0.034840 -0.062106 0.130323
					CHANNELS 3 Zrotation Yrotation Xrotation
					End Site
					{
						OFFSET 0.000000 0.000000 0.000000
					}
				}
			}
		}
	}
	JOINT lowerback
	{
		OFFSET 0.004439 0.124404 -0.038385
		CHANNELS 3 Zrotation Yrotation Xrotation
		JOINT upperback
		{
			OFFSET 0.004488 0.137956 0.026820
			CHANNELS 3 Zrotation Yrotation Xrotation
			JOINT chest
			{
				OFFSET -0.002265 0.056032 0.002855
				CHANNELS 3 Zrotation Yrotation Xrotation
				JOINT lowerneck
				{
					OFFSET -0.013390 0.211636 -0.033468
					CHANNELS 3 Zrotation Yrotation Xrotation
					JOINT upperneck
					{
						OFFSET 0.010113 0.088937 0.050410
						CHANNELS 3 Zrotation Yrotation Xrotation
						End Site
						{
							OFFSET 0.000000 0.000000 0.000000
						}
					}
				}
				JOINT lclavicle
				{
					OFFSET 0.071702 0.114000 -0.018898
					CHANNELS 3 Zrotation Yrotation Xrotation
					JOINT lshoulder
					{
						OFFSET 0.122921 0.045205 -0.019046
						CHANNELS 3 Zrotation Yrotation Xrotation
						JOINT lelbow
						{
							OFFSET 0.255332 -0.015649 -0.022946
							CHANNELS 3 Zrotation Yrotation Xrotation
							JOINT lwrist
							{
								OFFSET 0.265709 0.012698 -0.007375
								CHANNELS 3 Zrotation Yrotation Xrotation
								End Site
								{
									OFFSET 0.000000 0.000000 0.000000
								}
							}
						}
					}
				}
				JOINT rclavicle
				{
					OFFSET -0.082954 0.112472 -0.023707
					CHANNELS 3 Zrotation Yrotation Xrotation
					JOINT rshoulder
					{
						OFFSET -0.113228 0.046853 -0.008472
						CHANNELS 3 Zrotation Yrotation Xrotation
						JOINT relbow
						{
							OFFSET -0.260127 -0.014369 -0.031269
							CHANNELS 3 Zrotation Yrotation Xrotation
							JOINT rwrist
							{
								OFFSET -0.269108 0.006794 -0.006027
								CHANNELS 3 Zrotation Yrotation Xrotation
								End Site
								{
									OFFSET 0.000000 0.000000 0.000000
								}
							}
						}
					}
				}
			}
		}
	}
}
MOTION
Frames: 14
Frame Time: 0.033333
-0.087209 0.709935 0.971280 -94.847912 3.889227 76.082598 -0.396549 -8.007247 -8.946441 -9.188195 -0.487164 34.384092 5.437459 15.469001 -17.347405 0.000000 -0.000000 0.000000 -16.310197 9.633802 -19.774583 2.816225 7.190741 102.380819 15.258584 -14.154049 26.618547 0.000000 -0.000000 0.000000 -5.558069 1.261105 27.913274 3.664712 -2.762562 5.556557 0.200977 -0.810786 3.277431 2.799048 -7.856515 14.891809 8.010700 -3.702123 7.797540 -22.682071 -3.656841 6.057286 -32.526275 -1.003359 1.957509 10.864597 -44.434271 -10.503038 2.760946 -21.979467 2.857280 24.455770 3.058556 0.431945 42.711734 -10.742275 7.164896 -18.339488 22.323122 -21.524932 1.481779 3.614793 16.252201 
-0.114336 0.706677 0.982353 -92.371770 4.730693 70.909585 -0.591540 -3.441886 -0.017134 -9.240373 -4.751603 32.113024 2.216281 13.144010 -17.193522 0.000000 -0.000000 0.000000 -14.467402 7.604951 -31.088639 -4.465194 -0.427216 81.959176 14.775830 -12.499013 27.920473 0.000000 -0.000000 0.000000 -5.724455 -3.514906 35.158569 2.057300 -4.768698 5.572921 0.442034 -3.668169 4.251066 0.441627 -2.483390 16.024338 7.688023 -0.890440 6.193260 -23.195910 -5.944018 5.580231 -32.785481 -8.310409 0.674236 17.502045 -46.221497 -17.308362 2.903193 -22.407258 2.847993 24.074667 0.269099 0.909699 44.397571 -14.923603 7.206633 -17.720165 24.087348 -16.978748 2.596547 3.897894 14.192545 
-0.133899 0.709776 0.989231 -91.621604 7.200530 69.250919 3.787054 1.397681 2.852934 -10.922140 -8.807619 33.114790 3.363004 11.443859 -16.945149 0.000000 -0.000000 0.000000 -8.287257 2.330395 -42.475062 1.557029 -5.791205 57.419097 -17.549903 -8.703446 18.332235 0.000000 -0.000000 0.000000 -3.814286 -7.563980 38.568721 0.378437 -6.706517 4.174407 0.387562 -6.838869 6.862736 -4.373396 1.474167 13.458076 9.933842 4.062135 8.631972 -23.165440 -8.582981 2.037173 -32.361283 -14.528588 -2.569070 20.239891 -47.712838 -16.124815 2.213349 -20.239519 0.481902 22.608868 -1.955350 3.020307 45.798649 -17.583359 3.098972 -15.591473 25.628648 -7.817704 4.769933 4.153374 8.738738 
-0.156208 0.710989 0.991863 -91.663357 8.280056 69.078899 5.652053 2.446145 4.854031 -10.912649 -9.255350 32.791239 2.562531 10.341153 -18.507244 0.000000 -0.000000 0.000000 -4.588899 4.910815 -48.068876 3.141171 -8.036294 21.996991 -10.639742 -10.020343 36.525839 0.000000 -0.000000 0.000000 -3.763924 -10.285151 40.078908 -0.566455 -7.243074 2.711153 0.399286 -8.528465 8.198521 -7.967538 1.960070 13.177111 11.409857 8.891048 8.269697 -23.080671 -9.427075 1.881160 -32.818604 -25.770427 -3.196209 26.474569 -47.141820 -23.139737 7.054292 -20.808288 0.744268 19.917532 -5.702181 3.438178 47.151905 -20.745285 5.326106 -15.258721 24.293681 -5.337054 5.228012 3.716936 8.202579 
-0.187973 0.709089 0.995556 -88.812058 8.274420 66.818229 4.534767 2.605527 10.466326 -9.524859 -11.376528 31.859730 0.082586 9.622769 -21.759462 0.000000 -0.000000 0.000000 -3.049912 4.246651 -55.316279 0.655005 -18.498948 11.036590 13.855711 -17.481950 36.584220 0.000000 -0.000000 0.000000 -5.705924 -13.014434 42.482190 -1.080879 -8.705812 4.035679 0.725644 -9.496052 7.033386 -8.652931 3.880208 14.168051 11.088406 9.786572 6.675747 -22.144912 -12.847263 2.593419 -34.309641 -33.447221 -1.416154 34.645791 -46.292199 -31.710388 4.307067 -22.622261 3.752539 17.787290 -6.791746 3.130592 48.353956 -26.609699 6.349279 -15.507332 22.237976 -5.384833 8.184411 3.184100 12.229266 
-0.221808 0.709050 0.998049 -83.413830 10.800910 65.609040 5.897897 1.456221 14.751154 -9.098370 -15.934696 31.787901 -0.798222 9.777364 -23.538799 0.000000 -0.000000 0.000000 -7.839770 5.347822 -60.301271 0.333121 -18.799746 12.205419 18.124882 -13.559431 17.409050 0.000000 -0.000000 0.000000 -4.769973 -16.810846 43.348628 -0.480692 -10.289036 4.398967 0.194947 -11.196263 7.228831 -7.355392 6.830524 13.606687 9.799173 8.105961 6.907126 -19.104497 -16.186608 1.386697 -39.723707 -40.429860 1.987832 37.681927 -45.310365 -31.752679 3.518831 -23.428042 2.824885 15.738891 -8.367237 3.579641 50.178510 -30.428933 5.184777 -15.411756 20.354805 -0.534610 10.603502 3.168113 12.035000 
-0.256229 0.711118 1.004560 -80.451170 13.425245 64.493213 8.015795 -0.282662 18.708756 -9.019198 -19.403789 32.163096 -1.284935 10.596157 -22.421467 0.000000 -0.000000 0.000000 -10.273376 7.068183 -67.956534 -0.770623 -17.467970 25.091864 8.376965 -13.672428 7.289492 0.000000 -0.000000 0.000000 -4.165676 -19.337895 43.975439 0.486424 -9.756666 4.217082 0.235378 -12.629938 7.536442 -7.381385 8.085791 12.991159 9.349889 7.904697 7.588701 -17.160538 -18.514971 1.258095 -45.275456 -45.275867 5.670822 40.230362 -47.507951 -30.763952 2.501633 -22.016453 0.320055 14.526846 -9.188987 4.448973 52.034454 -32.604778 3.983203 -15.826449 18.552951 2.941817 11.704329 2.750517 11.036307 
-0.291297 0.710982 1.016950 -78.055228 15.228359 63.972289 9.497799 -1.477601 21.554923 -8.541593 -21.310299 32.306826 -2.389225 10.701290 -17.933319 0.000000 -0.000000 0.000000 -11.361741 8.052485 -72.962618 -1.809438 -18.046084 37.748895 10.302765 -10.827259 4.103944 0.000000 -0.000000 0.000000 -4.959941 -21.391507 43.587710 1.782308 -8.939531 5.375766 0.625420 -12.697101 6.767883 -6.454906 9.284902 13.107315 8.313448 7.098335 7.607364 -17.760831 -20.375116 1.573116 -50.040993 -48.236828 10.384815 42.734848 -49.983537 -29.521203 -0.788190 -22.290039 3.939680 15.245948 -9.393541 4.995203 52.740262 -33.184451 3.042749 -15.963644 16.712475 4.000308 12.030299 3.092316 11.538802 
-0.322285 0.709970 1.035098 -74.613775 16.398814 65.566475 10.855288 -2.261807 21.727273 -7.213921 -21.350729 31.179211 -3.702001 8.692779 -11.215349 0.000000 -0.000000 0.000000 -12.203643 7.632479 -73.663375 -2.492574 -21.022476 44.203863 9.404723 -7.634606 4.876234 0.000000 -0.000000 0.000000 -4.158899 -21.700907 41.000320 3.522415 -9.685615 6.279678 1.387627 -13.017342 5.797242 -5.465829 10.011670 13.990092 7.454191 5.865246 7.502621 -17.752841 -21.495734 1.904867 -56.859580 -49.721217 15.482164 43.838435 -52.403029 -26.770277 -4.068487 -22.817142 7.079494 16.262581 -10.121701 5.114043 54.097342 -32.468089 2.029153 -16.135985 17.291822 6.208120 11.328576 3.260295 10.341114 
-0.349964 0.707822 1.057138 -71.522753 16.655524 68.192530 10.904708 -3.033930 19.953527 -5.831736 -20.228950 30.005202 -4.936903 7.693347 -1.273707 0.000000 -0.000000 0.000000 -11.598857 7.599153 -69.808435 -3.006413 -24.075220 42.550927 6.650568 -8.659203 3.167023 0.000000 -0.000000 0.000000 -3.000791 -21.396807 38.011367 5.061886 -10.096753 5.879492 2.121167 -13.278804 5.074250 -5.220936 9.490660 14.315908 6.833203 5.154719 7.627562 -17.088596 -21.243245 2.529858 -63.027851 -49.043167 21.140155 44.169142 -56.347655 -24.582952 -3.230100 -21.220622 3.716349 17.086477 -10.432208 4.996925 56.242135 -30.655730 2.482920 -16.326381 19.282830 6.127143 9.789010 3.405128 7.802590 
-0.378952 0.705587 1.078597 -70.152685 15.750520 71.058403 10.462622 -2.735798 17.859577 -4.515985 -17.776294 28.344814 -7.019540 7.142970 8.577291 0.000000 -0.000000 0.000000 -9.327776 8.799447 -65.060801 -3.393698 -24.684335 39.754737 6.387931 -8.108957 3.784160 0.000000 -0.000000 0.000000 -2.285763 -19.947384 33.811829 6.148876 -9.924812 5.802455 2.717421 -12.637611 4.010521 -4.989409 8.422726 15.281056 6.256998 3.851167 7.636663 -17.568122 -20.360491 3.528579 -67.386681 -47.221807 24.964773 41.954905 -60.318542 -19.439256 -3.563503 -20.610634 3.867931 17.918066 -10.492925 5.465279 58.045068 -28.282694 3.026483 -15.743778 22.920779 6.938378 7.470042 3.989394 4.606134 
-0.407690 0.701204 1.095881 -68.108679 14.217505 73.381252 9.538486 -2.570012 16.656482 -3.382290 -14.894460 26.292935 -7.903786 6.600798 16.332365 0.000000 -0.000000 0.000000 -7.393585 9.123012 -58.882165 -2.801149 -23.400882 37.144900 5.565062 -7.407158 9.450511 0.000000 -0.000000 0.000000 -2.254979 -18.479858 30.477961 6.864308 -9.795574 5.471470 3.397417 -11.707541 2.818362 -5.156036 6.659647 15.433676 6.390730 2.962334 8.582742 -17.573331 -19.213715 4.113990 -70.878289 -44.762855 27.646409 35.880628 -63.561809 -13.053475 -3.916210 -20.295321 2.232609 18.276633 -10.067020 6.029832 59.781184 -25.747484 4.218282 -15.405749 27.371041 6.694723 5.355690 4.564735 3.138106 
-0.439241 0.695435 1.105724 -65.457942 12.525670 76.051897 8.567838 -3.001934 15.942480 -3.064238 -13.899834 24.130604 -8.185940 6.273179 20.710583 0.000000 -0.000000 0.000000 -6.985218 8.655760 -52.854070 -1.737626 -22.577720 35.871308 5.595880 -6.135733 10.274030 0.000000 -0.000000 0.000000 -1.726777 -16.927275 25.667016 7.353354 -9.746230 5.437817 3.387720 -11.019683 1.983574 -4.683798 4.848200 15.929889 6.079188 0.855591 9.379807 -17.714815 -18.171112 4.753801 -73.310994 -41.981608 29.884576 27.590729 -65.240977 -4.654897 -2.082618 -20.684802 0.462500 18.777811 -9.385862 6.325360 60.597633 -22.754824 5.537053 -15.256511 30.660552 6.625979 3.126675 5.238678 1.990930 
-0.471513 0.688741 1.107451 -63.291919 10.797529 78.192909 7.626698 -3.111224 15.724631 -2.909721 -13.800968 22.851194 -8.194994 5.619646 22.853502 0.000000 -0.000000 0.000000 -6.001526 7.923354 -45.961670 -1.130681 -20.780952 32.847459 5.146687 -6.345599 10.431015 0.000000 -0.000000 0.000000 -1.382143 -14.975743 21.757578 7.621324 -9.176885 5.175435 3.490069 -10.019101 1.148750 -4.251263 2.449450 15.460046 5.685942 -0.996378 10.515029 -17.918921 -16.823373 5.150546 -75.195313 -39.224983 31.259242 18.387179 -66.276233 6.259380 -2.053277 -20.297252 0.201177 19.147601 -8.552905 6.006678 60.363456 -20.148736 6.235193 -15.719354 33.703518 6.238422 2.478275 5.510812 1.505386 
